<svg xmlns="http://www.w3.org/2000/svg" xmlns:xlink="http://www.w3.org/1999/xlink" width="196" zoomAndPan="magnify" viewBox="0 0 147 65.249999" height="87" preserveAspectRatio="xMidYMid meet" version="1.0"><defs><g/><clipPath id="c37f9c18df"><path d="M 107.859375 12 L 112 12 L 112 14 L 107.859375 14 Z M 107.859375 12 " clip-rule="nonzero"/></clipPath><clipPath id="12d206c7b1"><path d="M 128 10 L 141.96875 10 L 141.96875 54.871094 L 128 54.871094 Z M 128 10 " clip-rule="nonzero"/></clipPath><clipPath id="71af0a9fd6"><rect x="0" width="117" y="0" height="35"/></clipPath><clipPath id="307826e5c2"><rect x="0" width="106" y="0" height="6"/></clipPath></defs><g clip-path="url(#c37f9c18df)"><path fill="#ff9500" d="M 111.738281 12.679688 L 107.859375 13.035156 L 111.738281 13.007812 Z M 111.738281 12.679688 " fill-opacity="1" fill-rule="nonzero"/></g><path fill="#ff9500" d="M 113.722656 12.515625 L 113.722656 13.011719 L 126.355469 12.9375 L 126.347656 11.359375 Z M 113.722656 12.515625 " fill-opacity="1" fill-rule="nonzero"/><path fill="#ff9500" d="M 127.816406 15.34375 C 127.8125 13.460938 127.789062 7.117188 127.816406 6.421875 C 127.835938 5.96875 127.566406 3.914062 125.941406 2.226562 C 124.539062 0.769531 122.574219 0.03125 120.097656 0.03125 C 112.671875 0.03125 112.316406 6.835938 112.316406 6.917969 L 112.316406 15.339844 C 112.09375 15.484375 111.945312 15.738281 111.945312 16.027344 C 111.945312 16.480469 112.3125 16.851562 112.769531 16.851562 C 113.222656 16.851562 113.59375 16.480469 113.59375 16.027344 C 113.59375 15.695312 113.394531 15.414062 113.109375 15.28125 L 113.109375 6.933594 C 113.117188 6.679688 113.429688 0.820312 120.101562 0.820312 C 122.355469 0.820312 124.128906 1.472656 125.378906 2.769531 C 126.691406 4.136719 127.046875 5.902344 127.03125 6.390625 C 127.003906 7.101562 127.019531 13.308594 127.023438 15.28125 C 126.742188 15.414062 126.542969 15.695312 126.542969 16.027344 C 126.542969 16.480469 126.910156 16.851562 127.367188 16.851562 C 127.820312 16.851562 128.191406 16.480469 128.191406 16.027344 C 128.191406 15.738281 128.039062 15.488281 127.816406 15.34375 Z M 127.816406 15.34375 " fill-opacity="1" fill-rule="nonzero"/><g clip-path="url(#12d206c7b1)"><path fill="#ff9500" d="M 138.527344 11.378906 L 137.996094 10.3125 L 137.777344 10.332031 L 133.285156 10.742188 L 128.46875 11.183594 L 128.480469 12.921875 L 134.683594 12.886719 C 145.4375 30.96875 133.492188 54.558594 133.234375 55.070312 C 145.824219 37.304688 142.238281 17.457031 138.527344 11.378906 Z M 138.527344 11.378906 " fill-opacity="1" fill-rule="nonzero"/></g><g transform="matrix(1, 0, 0, 1, 18, 17)"><g clip-path="url(#71af0a9fd6)"><g fill="#ff9500" fill-opacity="1"><g transform="translate(0.870121, 26.668236)"><g><path d="M 26.9375 -23.71875 C 27.34375 -23.71875 27.644531 -23.597656 27.84375 -23.359375 C 28.050781 -23.117188 28.15625 -22.796875 28.15625 -22.390625 C 28.15625 -22.085938 28.113281 -21.800781 28.03125 -21.53125 L 21.9375 -1.28125 C 21.789062 -0.894531 21.578125 -0.582031 21.296875 -0.34375 C 21.023438 -0.113281 20.707031 0 20.34375 0 C 19.976562 0 19.65625 -0.113281 19.375 -0.34375 C 19.09375 -0.582031 18.890625 -0.882812 18.765625 -1.25 L 14.25 -18.734375 L 9.65625 -1.28125 C 9.519531 -0.894531 9.3125 -0.582031 9.03125 -0.34375 C 8.757812 -0.113281 8.441406 0 8.078125 0 C 7.710938 0 7.390625 -0.109375 7.109375 -0.328125 C 6.828125 -0.554688 6.625 -0.863281 6.5 -1.25 L 0.390625 -21.53125 C 0.304688 -21.800781 0.265625 -22.078125 0.265625 -22.359375 C 0.265625 -22.785156 0.378906 -23.117188 0.609375 -23.359375 C 0.847656 -23.597656 1.171875 -23.71875 1.578125 -23.71875 C 1.941406 -23.71875 2.257812 -23.613281 2.53125 -23.40625 C 2.8125 -23.207031 3.007812 -22.914062 3.125 -22.53125 L 8.109375 -5.21875 L 12.703125 -22.359375 C 12.773438 -22.660156 12.953125 -22.910156 13.234375 -23.109375 C 13.523438 -23.316406 13.851562 -23.421875 14.21875 -23.421875 C 14.5625 -23.421875 14.875 -23.328125 15.15625 -23.140625 C 15.4375 -22.960938 15.617188 -22.710938 15.703125 -22.390625 L 20.34375 -5.109375 L 25.390625 -22.6875 C 25.492188 -23.050781 25.671875 -23.3125 25.921875 -23.46875 C 26.179688 -23.632812 26.519531 -23.71875 26.9375 -23.71875 Z M 26.9375 -23.71875 "/></g></g></g><g fill="#ff9500" fill-opacity="1"><g transform="translate(29.355813, 26.668236)"><g><path d="M 10.265625 -16.734375 C 11.828125 -16.734375 13.238281 -16.363281 14.5 -15.625 C 15.769531 -14.882812 16.773438 -13.867188 17.515625 -12.578125 C 18.253906 -11.296875 18.625 -9.867188 18.625 -8.296875 L 18.625 -1.515625 C 18.625 -1.066406 18.472656 -0.695312 18.171875 -0.40625 C 17.878906 -0.113281 17.515625 0.03125 17.078125 0.03125 C 16.628906 0.03125 16.253906 -0.113281 15.953125 -0.40625 C 15.660156 -0.695312 15.515625 -1.066406 15.515625 -1.515625 L 15.515625 -2.640625 C 14.804688 -1.773438 13.945312 -1.097656 12.9375 -0.609375 C 11.925781 -0.117188 10.832031 0.125 9.65625 0.125 C 8.195312 0.125 6.875 -0.238281 5.6875 -0.96875 C 4.507812 -1.695312 3.582031 -2.703125 2.90625 -3.984375 C 2.226562 -5.273438 1.890625 -6.710938 1.890625 -8.296875 C 1.890625 -9.867188 2.25 -11.296875 2.96875 -12.578125 C 3.695312 -13.867188 4.703125 -14.882812 5.984375 -15.625 C 7.273438 -16.363281 8.703125 -16.734375 10.265625 -16.734375 Z M 10.265625 -2.609375 C 11.273438 -2.609375 12.191406 -2.851562 13.015625 -3.34375 C 13.835938 -3.84375 14.476562 -4.523438 14.9375 -5.390625 C 15.40625 -6.253906 15.640625 -7.222656 15.640625 -8.296875 C 15.640625 -9.367188 15.40625 -10.335938 14.9375 -11.203125 C 14.476562 -12.078125 13.835938 -12.757812 13.015625 -13.25 C 12.191406 -13.75 11.273438 -14 10.265625 -14 C 9.253906 -14 8.335938 -13.75 7.515625 -13.25 C 6.691406 -12.757812 6.039062 -12.078125 5.5625 -11.203125 C 5.09375 -10.335938 4.859375 -9.367188 4.859375 -8.296875 C 4.859375 -7.222656 5.09375 -6.253906 5.5625 -5.390625 C 6.039062 -4.523438 6.691406 -3.84375 7.515625 -3.34375 C 8.335938 -2.851562 9.253906 -2.609375 10.265625 -2.609375 Z M 10.265625 -2.609375 "/></g></g></g><g fill="#ff9500" fill-opacity="1"><g transform="translate(49.854578, 26.668236)"><g><path d="M 10.265625 0.125 C 8.648438 0.125 7.203125 -0.234375 5.921875 -0.953125 C 4.648438 -1.671875 3.660156 -2.664062 2.953125 -3.9375 C 2.242188 -5.21875 1.890625 -6.671875 1.890625 -8.296875 C 1.890625 -9.929688 2.242188 -11.382812 2.953125 -12.65625 C 3.660156 -13.9375 4.648438 -14.9375 5.921875 -15.65625 C 7.203125 -16.375 8.648438 -16.734375 10.265625 -16.734375 C 11.867188 -16.734375 13.300781 -16.375 14.5625 -15.65625 C 15.832031 -14.9375 16.828125 -13.9375 17.546875 -12.65625 C 18.265625 -11.382812 18.625 -9.929688 18.625 -8.296875 C 18.625 -6.671875 18.269531 -5.21875 17.5625 -3.9375 C 16.851562 -2.664062 15.863281 -1.671875 14.59375 -0.953125 C 13.332031 -0.234375 11.890625 0.125 10.265625 0.125 Z M 10.265625 -2.609375 C 11.296875 -2.609375 12.222656 -2.847656 13.046875 -3.328125 C 13.867188 -3.816406 14.503906 -4.492188 14.953125 -5.359375 C 15.410156 -6.222656 15.640625 -7.203125 15.640625 -8.296875 C 15.640625 -9.390625 15.410156 -10.367188 14.953125 -11.234375 C 14.503906 -12.109375 13.867188 -12.785156 13.046875 -13.265625 C 12.222656 -13.753906 11.296875 -14 10.265625 -14 C 9.234375 -14 8.304688 -13.753906 7.484375 -13.265625 C 6.660156 -12.785156 6.015625 -12.109375 5.546875 -11.234375 C 5.085938 -10.367188 4.859375 -9.390625 4.859375 -8.296875 C 4.859375 -7.203125 5.085938 -6.222656 5.546875 -5.359375 C 6.015625 -4.492188 6.660156 -3.816406 7.484375 -3.328125 C 8.304688 -2.847656 9.234375 -2.609375 10.265625 -2.609375 Z M 10.265625 -2.609375 "/></g></g></g><g fill="#ff9500" fill-opacity="1"><g transform="translate(70.35646, 26.668236)"><g><path d="M 4.21875 0 C 3.851562 0 3.5625 -0.0703125 3.34375 -0.21875 C 3.132812 -0.375 3.03125 -0.601562 3.03125 -0.90625 L 3.03125 -22.8125 C 3.03125 -23.09375 3.113281 -23.3125 3.28125 -23.46875 C 3.457031 -23.632812 3.679688 -23.71875 3.953125 -23.71875 L 11.390625 -23.71875 C 12.503906 -23.71875 13.535156 -23.46875 14.484375 -22.96875 C 15.441406 -22.476562 16.195312 -21.796875 16.75 -20.921875 C 17.3125 -20.054688 17.59375 -19.078125 17.59375 -17.984375 C 17.59375 -16.847656 17.285156 -15.828125 16.671875 -14.921875 C 16.066406 -14.023438 15.257812 -13.351562 14.25 -12.90625 C 15.664062 -12.519531 16.78125 -11.804688 17.59375 -10.765625 C 18.414062 -9.722656 18.828125 -8.429688 18.828125 -6.890625 C 18.828125 -5.554688 18.53125 -4.367188 17.9375 -3.328125 C 17.34375 -2.285156 16.507812 -1.46875 15.4375 -0.875 C 14.375 -0.289062 13.175781 0 11.84375 0 Z M 11.390625 -13.703125 C 12.679688 -13.703125 13.734375 -14.09375 14.546875 -14.875 C 15.359375 -15.664062 15.765625 -16.703125 15.765625 -17.984375 C 15.765625 -19.210938 15.363281 -20.171875 14.5625 -20.859375 C 13.757812 -21.554688 12.703125 -21.90625 11.390625 -21.90625 L 4.859375 -21.90625 L 4.859375 -13.703125 Z M 11.84375 -1.828125 C 12.832031 -1.828125 13.71875 -2.039062 14.5 -2.46875 C 15.28125 -2.90625 15.894531 -3.507812 16.34375 -4.28125 C 16.789062 -5.050781 17.015625 -5.921875 17.015625 -6.890625 C 17.015625 -7.847656 16.789062 -8.703125 16.34375 -9.453125 C 15.894531 -10.210938 15.28125 -10.804688 14.5 -11.234375 C 13.71875 -11.660156 12.832031 -11.875 11.84375 -11.875 L 4.859375 -11.875 L 4.859375 -1.828125 Z M 11.84375 -1.828125 "/></g></g></g><g fill="#ff9500" fill-opacity="1"><g transform="translate(90.855225, 26.668236)"><g><path d="M 4.25 0 C 3.988281 0 3.769531 -0.0820312 3.59375 -0.25 C 3.425781 -0.425781 3.34375 -0.644531 3.34375 -0.90625 L 3.34375 -15.703125 C 3.34375 -15.984375 3.425781 -16.203125 3.59375 -16.359375 C 3.769531 -16.523438 3.988281 -16.609375 4.25 -16.609375 C 4.53125 -16.609375 4.75 -16.523438 4.90625 -16.359375 C 5.070312 -16.203125 5.15625 -15.984375 5.15625 -15.703125 L 5.15625 -0.90625 C 5.15625 -0.644531 5.070312 -0.425781 4.90625 -0.25 C 4.75 -0.0820312 4.53125 0 4.25 0 Z M 4.21875 -20.109375 C 3.8125 -20.109375 3.472656 -20.242188 3.203125 -20.515625 C 2.941406 -20.785156 2.8125 -21.125 2.8125 -21.53125 C 2.8125 -21.976562 2.953125 -22.320312 3.234375 -22.5625 C 3.523438 -22.8125 3.863281 -22.9375 4.25 -22.9375 C 4.632812 -22.9375 4.960938 -22.8125 5.234375 -22.5625 C 5.503906 -22.320312 5.640625 -21.976562 5.640625 -21.53125 C 5.640625 -21.125 5.503906 -20.785156 5.234375 -20.515625 C 4.960938 -20.242188 4.625 -20.109375 4.21875 -20.109375 Z M 4.21875 -20.109375 "/></g></g></g><g fill="#ff9500" fill-opacity="1"><g transform="translate(99.358416, 26.668236)"><g><path d="M 14.671875 -1.640625 C 15.210938 -1.640625 15.484375 -1.363281 15.484375 -0.8125 C 15.484375 -0.269531 15.210938 0 14.671875 0 L 2.796875 0 C 2.242188 0 1.96875 -0.269531 1.96875 -0.8125 C 1.96875 -1.125 2.050781 -1.335938 2.21875 -1.453125 L 13.0625 -14.96875 L 2.796875 -14.96875 C 2.242188 -14.96875 1.96875 -15.242188 1.96875 -15.796875 C 1.96875 -16.335938 2.242188 -16.609375 2.796875 -16.609375 L 14.671875 -16.609375 C 15.210938 -16.609375 15.484375 -16.335938 15.484375 -15.796875 C 15.484375 -15.554688 15.445312 -15.382812 15.375 -15.28125 L 4.5 -1.640625 Z M 14.671875 -1.640625 "/></g></g></g></g></g><g transform="matrix(1, 0, 0, 1, 25, 47)"><g clip-path="url(#307826e5c2)"><g fill="#ffffff" fill-opacity="1"><g transform="translate(1.008093, 4.457477)"><g><path d="M 2.078125 -0.625 L 2.078125 0 L 0.28125 0 L 0.28125 -3.109375 L 2.078125 -3.109375 L 2.078125 -2.484375 L 0.953125 -2.484375 L 0.953125 -1.859375 L 2.03125 -1.859375 L 2.03125 -1.25 L 0.953125 -1.25 L 0.953125 -0.625 Z M 2.078125 -0.625 "/></g></g></g><g fill="#ffffff" fill-opacity="1"><g transform="translate(5.632042, 4.457477)"><g><path d="M 1.96875 -1.1875 L 1.5625 -2.296875 L 1.171875 -1.1875 Z M 3.125 0 L 2.390625 0 L 2.15625 -0.625 L 0.984375 -0.625 L 0.75 0 L 0.015625 0 L 1.28125 -3.109375 L 1.859375 -3.109375 Z M 3.125 0 "/></g></g></g><g fill="#ffffff" fill-opacity="1"><g transform="translate(11.054009, 4.457477)"><g><path d="M 1.484375 -0.484375 C 1.554688 -0.484375 1.632812 -0.492188 1.71875 -0.515625 C 1.800781 -0.535156 1.875 -0.570312 1.9375 -0.625 C 2 -0.6875 2.03125 -0.757812 2.03125 -0.84375 C 2.03125 -0.925781 1.992188 -0.992188 1.921875 -1.046875 C 1.859375 -1.097656 1.773438 -1.140625 1.671875 -1.171875 C 1.566406 -1.210938 1.453125 -1.242188 1.328125 -1.265625 C 1.203125 -1.296875 1.070312 -1.332031 0.9375 -1.375 C 0.8125 -1.414062 0.695312 -1.46875 0.59375 -1.53125 C 0.488281 -1.601562 0.398438 -1.691406 0.328125 -1.796875 C 0.265625 -1.910156 0.234375 -2.046875 0.234375 -2.203125 C 0.234375 -2.367188 0.265625 -2.507812 0.328125 -2.625 C 0.398438 -2.738281 0.488281 -2.832031 0.59375 -2.90625 C 0.707031 -2.988281 0.832031 -3.046875 0.96875 -3.078125 C 1.113281 -3.117188 1.253906 -3.140625 1.390625 -3.140625 C 1.609375 -3.140625 1.804688 -3.109375 1.984375 -3.046875 C 2.171875 -2.984375 2.320312 -2.878906 2.4375 -2.734375 C 2.5625 -2.585938 2.625 -2.394531 2.625 -2.15625 L 1.96875 -2.15625 C 1.945312 -2.320312 1.890625 -2.4375 1.796875 -2.5 C 1.703125 -2.5625 1.570312 -2.59375 1.40625 -2.59375 C 1.34375 -2.59375 1.273438 -2.578125 1.203125 -2.546875 C 1.128906 -2.523438 1.066406 -2.488281 1.015625 -2.4375 C 0.960938 -2.394531 0.9375 -2.335938 0.9375 -2.265625 C 0.9375 -2.179688 0.96875 -2.113281 1.03125 -2.0625 C 1.101562 -2.019531 1.191406 -1.984375 1.296875 -1.953125 C 1.398438 -1.929688 1.515625 -1.90625 1.640625 -1.875 C 1.773438 -1.84375 1.90625 -1.804688 2.03125 -1.765625 C 2.15625 -1.734375 2.269531 -1.679688 2.375 -1.609375 C 2.488281 -1.546875 2.578125 -1.457031 2.640625 -1.34375 C 2.703125 -1.238281 2.734375 -1.097656 2.734375 -0.921875 C 2.734375 -0.742188 2.695312 -0.585938 2.625 -0.453125 C 2.550781 -0.328125 2.453125 -0.222656 2.328125 -0.140625 C 2.210938 -0.0664062 2.078125 -0.015625 1.921875 0.015625 C 1.765625 0.0546875 1.609375 0.078125 1.453125 0.078125 C 1.222656 0.078125 1.007812 0.0390625 0.8125 -0.03125 C 0.613281 -0.113281 0.453125 -0.234375 0.328125 -0.390625 C 0.203125 -0.554688 0.140625 -0.765625 0.140625 -1.015625 L 0.828125 -1.015625 C 0.835938 -0.835938 0.90625 -0.703125 1.03125 -0.609375 C 1.164062 -0.523438 1.316406 -0.484375 1.484375 -0.484375 Z M 1.484375 -0.484375 "/></g></g></g><g fill="#ffffff" fill-opacity="1"><g transform="translate(16.206934, 4.457477)"><g><path d="M 1.1875 0 L 1.1875 -1.484375 L 0.03125 -3.109375 L 0.859375 -3.109375 L 1.53125 -2.03125 L 2.1875 -3.109375 L 3.015625 -3.109375 L 1.859375 -1.484375 L 1.859375 0 Z M 1.1875 0 "/></g></g></g><g fill="#ffffff" fill-opacity="1"><g transform="translate(21.53314, 4.457477)"><g/></g></g><g fill="#ffffff" fill-opacity="1"><g transform="translate(24.953214, 4.457477)"><g><path d="M 1.765625 -0.90625 C 1.765625 -1.007812 1.726562 -1.097656 1.65625 -1.171875 C 1.582031 -1.242188 1.492188 -1.28125 1.390625 -1.28125 L 0.953125 -1.28125 L 0.953125 -0.53125 L 1.390625 -0.53125 C 1.492188 -0.53125 1.582031 -0.566406 1.65625 -0.640625 C 1.726562 -0.710938 1.765625 -0.800781 1.765625 -0.90625 Z M 1.5625 -2.203125 C 1.5625 -2.304688 1.523438 -2.390625 1.453125 -2.453125 C 1.378906 -2.523438 1.296875 -2.5625 1.203125 -2.5625 L 0.953125 -2.5625 L 0.953125 -1.84375 L 1.203125 -1.84375 C 1.296875 -1.84375 1.378906 -1.878906 1.453125 -1.953125 C 1.523438 -2.023438 1.5625 -2.109375 1.5625 -2.203125 Z M 2.46875 -0.890625 C 2.46875 -0.617188 2.382812 -0.398438 2.21875 -0.234375 C 2.050781 -0.078125 1.820312 0 1.53125 0 L 0.28125 0 L 0.28125 -3.109375 L 1.34375 -3.109375 C 1.519531 -3.109375 1.671875 -3.070312 1.796875 -3 C 1.929688 -2.925781 2.03125 -2.832031 2.09375 -2.71875 C 2.164062 -2.601562 2.203125 -2.472656 2.203125 -2.328125 C 2.203125 -2.171875 2.171875 -2.035156 2.109375 -1.921875 C 2.046875 -1.804688 1.957031 -1.722656 1.84375 -1.671875 C 2.007812 -1.628906 2.15625 -1.539062 2.28125 -1.40625 C 2.40625 -1.269531 2.46875 -1.097656 2.46875 -0.890625 Z M 2.46875 -0.890625 "/></g></g></g><g fill="#ffffff" fill-opacity="1"><g transform="translate(29.745886, 4.457477)"><g><path d="M 2.078125 -3.109375 L 2.765625 -3.109375 L 2.765625 -1.203125 C 2.765625 -0.796875 2.648438 -0.484375 2.421875 -0.265625 C 2.203125 -0.0546875 1.890625 0.046875 1.484375 0.046875 C 1.078125 0.046875 0.757812 -0.0546875 0.53125 -0.265625 C 0.3125 -0.484375 0.203125 -0.796875 0.203125 -1.203125 L 0.203125 -3.109375 L 0.890625 -3.109375 L 0.890625 -1.3125 C 0.890625 -1.09375 0.929688 -0.925781 1.015625 -0.8125 C 1.097656 -0.695312 1.253906 -0.640625 1.484375 -0.640625 C 1.722656 -0.640625 1.878906 -0.695312 1.953125 -0.8125 C 2.035156 -0.925781 2.078125 -1.09375 2.078125 -1.3125 Z M 2.078125 -3.109375 "/></g></g></g><g fill="#ffffff" fill-opacity="1"><g transform="translate(34.99913, 4.457477)"><g><path d="M 1.484375 -0.484375 C 1.554688 -0.484375 1.632812 -0.492188 1.71875 -0.515625 C 1.800781 -0.535156 1.875 -0.570312 1.9375 -0.625 C 2 -0.6875 2.03125 -0.757812 2.03125 -0.84375 C 2.03125 -0.925781 1.992188 -0.992188 1.921875 -1.046875 C 1.859375 -1.097656 1.773438 -1.140625 1.671875 -1.171875 C 1.566406 -1.210938 1.453125 -1.242188 1.328125 -1.265625 C 1.203125 -1.296875 1.070312 -1.332031 0.9375 -1.375 C 0.8125 -1.414062 0.695312 -1.46875 0.59375 -1.53125 C 0.488281 -1.601562 0.398438 -1.691406 0.328125 -1.796875 C 0.265625 -1.910156 0.234375 -2.046875 0.234375 -2.203125 C 0.234375 -2.367188 0.265625 -2.507812 0.328125 -2.625 C 0.398438 -2.738281 0.488281 -2.832031 0.59375 -2.90625 C 0.707031 -2.988281 0.832031 -3.046875 0.96875 -3.078125 C 1.113281 -3.117188 1.253906 -3.140625 1.390625 -3.140625 C 1.609375 -3.140625 1.804688 -3.109375 1.984375 -3.046875 C 2.171875 -2.984375 2.320312 -2.878906 2.4375 -2.734375 C 2.5625 -2.585938 2.625 -2.394531 2.625 -2.15625 L 1.96875 -2.15625 C 1.945312 -2.320312 1.890625 -2.4375 1.796875 -2.5 C 1.703125 -2.5625 1.570312 -2.59375 1.40625 -2.59375 C 1.34375 -2.59375 1.273438 -2.578125 1.203125 -2.546875 C 1.128906 -2.523438 1.066406 -2.488281 1.015625 -2.4375 C 0.960938 -2.394531 0.9375 -2.335938 0.9375 -2.265625 C 0.9375 -2.179688 0.96875 -2.113281 1.03125 -2.0625 C 1.101562 -2.019531 1.191406 -1.984375 1.296875 -1.953125 C 1.398438 -1.929688 1.515625 -1.90625 1.640625 -1.875 C 1.773438 -1.84375 1.90625 -1.804688 2.03125 -1.765625 C 2.15625 -1.734375 2.269531 -1.679688 2.375 -1.609375 C 2.488281 -1.546875 2.578125 -1.457031 2.640625 -1.34375 C 2.703125 -1.238281 2.734375 -1.097656 2.734375 -0.921875 C 2.734375 -0.742188 2.695312 -0.585938 2.625 -0.453125 C 2.550781 -0.328125 2.453125 -0.222656 2.328125 -0.140625 C 2.210938 -0.0664062 2.078125 -0.015625 1.921875 0.015625 C 1.765625 0.0546875 1.609375 0.078125 1.453125 0.078125 C 1.222656 0.078125 1.007812 0.0390625 0.8125 -0.03125 C 0.613281 -0.113281 0.453125 -0.234375 0.328125 -0.390625 C 0.203125 -0.554688 0.140625 -0.765625 0.140625 -1.015625 L 0.828125 -1.015625 C 0.835938 -0.835938 0.90625 -0.703125 1.03125 -0.609375 C 1.164062 -0.523438 1.316406 -0.484375 1.484375 -0.484375 Z M 1.484375 -0.484375 "/></g></g></g><g fill="#ffffff" fill-opacity="1"><g transform="translate(40.152055, 4.457477)"><g><path d="M 0.953125 0 L 0.28125 0 L 0.28125 -3.109375 L 0.953125 -3.109375 Z M 0.953125 0 "/></g></g></g><g fill="#ffffff" fill-opacity="1"><g transform="translate(43.663333, 4.457477)"><g><path d="M 2.703125 0 L 2.03125 0 L 0.953125 -1.9375 L 0.953125 0 L 0.28125 0 L 0.28125 -3.109375 L 0.953125 -3.109375 L 2.03125 -1.171875 L 2.03125 -3.109375 L 2.703125 -3.109375 Z M 2.703125 0 "/></g></g></g><g fill="#ffffff" fill-opacity="1"><g transform="translate(48.925697, 4.457477)"><g><path d="M 2.078125 -0.625 L 2.078125 0 L 0.28125 0 L 0.28125 -3.109375 L 2.078125 -3.109375 L 2.078125 -2.484375 L 0.953125 -2.484375 L 0.953125 -1.859375 L 2.03125 -1.859375 L 2.03125 -1.25 L 0.953125 -1.25 L 0.953125 -0.625 Z M 2.078125 -0.625 "/></g></g></g><g fill="#ffffff" fill-opacity="1"><g transform="translate(53.549647, 4.457477)"><g><path d="M 1.484375 -0.484375 C 1.554688 -0.484375 1.632812 -0.492188 1.71875 -0.515625 C 1.800781 -0.535156 1.875 -0.570312 1.9375 -0.625 C 2 -0.6875 2.03125 -0.757812 2.03125 -0.84375 C 2.03125 -0.925781 1.992188 -0.992188 1.921875 -1.046875 C 1.859375 -1.097656 1.773438 -1.140625 1.671875 -1.171875 C 1.566406 -1.210938 1.453125 -1.242188 1.328125 -1.265625 C 1.203125 -1.296875 1.070312 -1.332031 0.9375 -1.375 C 0.8125 -1.414062 0.695312 -1.46875 0.59375 -1.53125 C 0.488281 -1.601562 0.398438 -1.691406 0.328125 -1.796875 C 0.265625 -1.910156 0.234375 -2.046875 0.234375 -2.203125 C 0.234375 -2.367188 0.265625 -2.507812 0.328125 -2.625 C 0.398438 -2.738281 0.488281 -2.832031 0.59375 -2.90625 C 0.707031 -2.988281 0.832031 -3.046875 0.96875 -3.078125 C 1.113281 -3.117188 1.253906 -3.140625 1.390625 -3.140625 C 1.609375 -3.140625 1.804688 -3.109375 1.984375 -3.046875 C 2.171875 -2.984375 2.320312 -2.878906 2.4375 -2.734375 C 2.5625 -2.585938 2.625 -2.394531 2.625 -2.15625 L 1.96875 -2.15625 C 1.945312 -2.320312 1.890625 -2.4375 1.796875 -2.5 C 1.703125 -2.5625 1.570312 -2.59375 1.40625 -2.59375 C 1.34375 -2.59375 1.273438 -2.578125 1.203125 -2.546875 C 1.128906 -2.523438 1.066406 -2.488281 1.015625 -2.4375 C 0.960938 -2.394531 0.9375 -2.335938 0.9375 -2.265625 C 0.9375 -2.179688 0.96875 -2.113281 1.03125 -2.0625 C 1.101562 -2.019531 1.191406 -1.984375 1.296875 -1.953125 C 1.398438 -1.929688 1.515625 -1.90625 1.640625 -1.875 C 1.773438 -1.84375 1.90625 -1.804688 2.03125 -1.765625 C 2.15625 -1.734375 2.269531 -1.679688 2.375 -1.609375 C 2.488281 -1.546875 2.578125 -1.457031 2.640625 -1.34375 C 2.703125 -1.238281 2.734375 -1.097656 2.734375 -0.921875 C 2.734375 -0.742188 2.695312 -0.585938 2.625 -0.453125 C 2.550781 -0.328125 2.453125 -0.222656 2.328125 -0.140625 C 2.210938 -0.0664062 2.078125 -0.015625 1.921875 0.015625 C 1.765625 0.0546875 1.609375 0.078125 1.453125 0.078125 C 1.222656 0.078125 1.007812 0.0390625 0.8125 -0.03125 C 0.613281 -0.113281 0.453125 -0.234375 0.328125 -0.390625 C 0.203125 -0.554688 0.140625 -0.765625 0.140625 -1.015625 L 0.828125 -1.015625 C 0.835938 -0.835938 0.90625 -0.703125 1.03125 -0.609375 C 1.164062 -0.523438 1.316406 -0.484375 1.484375 -0.484375 Z M 1.484375 -0.484375 "/></g></g></g><g fill="#ffffff" fill-opacity="1"><g transform="translate(58.702571, 4.457477)"><g><path d="M 1.484375 -0.484375 C 1.554688 -0.484375 1.632812 -0.492188 1.71875 -0.515625 C 1.800781 -0.535156 1.875 -0.570312 1.9375 -0.625 C 2 -0.6875 2.03125 -0.757812 2.03125 -0.84375 C 2.03125 -0.925781 1.992188 -0.992188 1.921875 -1.046875 C 1.859375 -1.097656 1.773438 -1.140625 1.671875 -1.171875 C 1.566406 -1.210938 1.453125 -1.242188 1.328125 -1.265625 C 1.203125 -1.296875 1.070312 -1.332031 0.9375 -1.375 C 0.8125 -1.414062 0.695312 -1.46875 0.59375 -1.53125 C 0.488281 -1.601562 0.398438 -1.691406 0.328125 -1.796875 C 0.265625 -1.910156 0.234375 -2.046875 0.234375 -2.203125 C 0.234375 -2.367188 0.265625 -2.507812 0.328125 -2.625 C 0.398438 -2.738281 0.488281 -2.832031 0.59375 -2.90625 C 0.707031 -2.988281 0.832031 -3.046875 0.96875 -3.078125 C 1.113281 -3.117188 1.253906 -3.140625 1.390625 -3.140625 C 1.609375 -3.140625 1.804688 -3.109375 1.984375 -3.046875 C 2.171875 -2.984375 2.320312 -2.878906 2.4375 -2.734375 C 2.5625 -2.585938 2.625 -2.394531 2.625 -2.15625 L 1.96875 -2.15625 C 1.945312 -2.320312 1.890625 -2.4375 1.796875 -2.5 C 1.703125 -2.5625 1.570312 -2.59375 1.40625 -2.59375 C 1.34375 -2.59375 1.273438 -2.578125 1.203125 -2.546875 C 1.128906 -2.523438 1.066406 -2.488281 1.015625 -2.4375 C 0.960938 -2.394531 0.9375 -2.335938 0.9375 -2.265625 C 0.9375 -2.179688 0.96875 -2.113281 1.03125 -2.0625 C 1.101562 -2.019531 1.191406 -1.984375 1.296875 -1.953125 C 1.398438 -1.929688 1.515625 -1.90625 1.640625 -1.875 C 1.773438 -1.84375 1.90625 -1.804688 2.03125 -1.765625 C 2.15625 -1.734375 2.269531 -1.679688 2.375 -1.609375 C 2.488281 -1.546875 2.578125 -1.457031 2.640625 -1.34375 C 2.703125 -1.238281 2.734375 -1.097656 2.734375 -0.921875 C 2.734375 -0.742188 2.695312 -0.585938 2.625 -0.453125 C 2.550781 -0.328125 2.453125 -0.222656 2.328125 -0.140625 C 2.210938 -0.0664062 2.078125 -0.015625 1.921875 0.015625 C 1.765625 0.0546875 1.609375 0.078125 1.453125 0.078125 C 1.222656 0.078125 1.007812 0.0390625 0.8125 -0.03125 C 0.613281 -0.113281 0.453125 -0.234375 0.328125 -0.390625 C 0.203125 -0.554688 0.140625 -0.765625 0.140625 -1.015625 L 0.828125 -1.015625 C 0.835938 -0.835938 0.90625 -0.703125 1.03125 -0.609375 C 1.164062 -0.523438 1.316406 -0.484375 1.484375 -0.484375 Z M 1.484375 -0.484375 "/></g></g></g><g fill="#ffffff" fill-opacity="1"><g transform="translate(63.855496, 4.457477)"><g/></g></g><g fill="#ffffff" fill-opacity="1"><g transform="translate(67.27557, 4.457477)"><g><path d="M 4.140625 0 L 3.390625 0 L 3.03125 -2.140625 L 2.421875 0 L 1.75 0 L 1.140625 -2.140625 L 0.78125 0 L 0.015625 0 L 0.625 -3.109375 L 1.4375 -3.109375 L 2.078125 -0.921875 L 2.734375 -3.109375 L 3.546875 -3.109375 Z M 4.140625 0 "/></g></g></g><g fill="#ffffff" fill-opacity="1"><g transform="translate(73.719005, 4.457477)"><g><path d="M 1.96875 -1.1875 L 1.5625 -2.296875 L 1.171875 -1.1875 Z M 3.125 0 L 2.390625 0 L 2.15625 -0.625 L 0.984375 -0.625 L 0.75 0 L 0.015625 0 L 1.28125 -3.109375 L 1.859375 -3.109375 Z M 3.125 0 "/></g></g></g><g fill="#ffffff" fill-opacity="1"><g transform="translate(79.140972, 4.457477)"><g><path d="M 2.703125 0 L 2.03125 0 L 0.953125 -1.9375 L 0.953125 0 L 0.28125 0 L 0.28125 -3.109375 L 0.953125 -3.109375 L 2.03125 -1.171875 L 2.03125 -3.109375 L 2.703125 -3.109375 Z M 2.703125 0 "/></g></g></g><g fill="#ffffff" fill-opacity="1"><g transform="translate(84.403337, 4.457477)"><g><path d="M 1.96875 -1.1875 L 1.5625 -2.296875 L 1.171875 -1.1875 Z M 3.125 0 L 2.390625 0 L 2.15625 -0.625 L 0.984375 -0.625 L 0.75 0 L 0.015625 0 L 1.28125 -3.109375 L 1.859375 -3.109375 Z M 3.125 0 "/></g></g></g><g fill="#ffffff" fill-opacity="1"><g transform="translate(89.825304, 4.457477)"><g><path d="M 1.828125 -2.515625 C 1.660156 -2.515625 1.507812 -2.46875 1.375 -2.375 C 1.238281 -2.289062 1.128906 -2.175781 1.046875 -2.03125 C 0.960938 -1.882812 0.921875 -1.722656 0.921875 -1.546875 C 0.921875 -1.367188 0.960938 -1.207031 1.046875 -1.0625 C 1.128906 -0.914062 1.238281 -0.796875 1.375 -0.703125 C 1.507812 -0.617188 1.660156 -0.578125 1.828125 -0.578125 C 1.921875 -0.578125 2.023438 -0.585938 2.140625 -0.609375 C 2.253906 -0.640625 2.359375 -0.695312 2.453125 -0.78125 C 2.546875 -0.863281 2.617188 -0.984375 2.671875 -1.140625 L 1.890625 -1.140625 L 1.890625 -1.65625 L 3.421875 -1.65625 L 3.421875 -1.546875 C 3.421875 -1.328125 3.378906 -1.117188 3.296875 -0.921875 C 3.210938 -0.734375 3.097656 -0.566406 2.953125 -0.421875 C 2.804688 -0.273438 2.632812 -0.160156 2.4375 -0.078125 C 2.25 0.00390625 2.046875 0.046875 1.828125 0.046875 C 1.609375 0.046875 1.398438 0.00390625 1.203125 -0.078125 C 1.015625 -0.160156 0.847656 -0.273438 0.703125 -0.421875 C 0.554688 -0.566406 0.441406 -0.734375 0.359375 -0.921875 C 0.273438 -1.117188 0.234375 -1.328125 0.234375 -1.546875 C 0.234375 -1.765625 0.273438 -1.96875 0.359375 -2.15625 C 0.441406 -2.351562 0.554688 -2.523438 0.703125 -2.671875 C 0.847656 -2.816406 1.015625 -2.929688 1.203125 -3.015625 C 1.398438 -3.097656 1.609375 -3.140625 1.828125 -3.140625 C 2.054688 -3.140625 2.269531 -3.09375 2.46875 -3 C 2.675781 -2.914062 2.851562 -2.789062 3 -2.625 C 3.15625 -2.457031 3.269531 -2.269531 3.34375 -2.0625 L 2.59375 -2.0625 C 2.507812 -2.21875 2.394531 -2.332031 2.25 -2.40625 C 2.113281 -2.476562 1.972656 -2.515625 1.828125 -2.515625 Z M 1.828125 -2.515625 "/></g></g></g><g fill="#ffffff" fill-opacity="1"><g transform="translate(95.680486, 4.457477)"><g><path d="M 2.078125 -0.625 L 2.078125 0 L 0.28125 0 L 0.28125 -3.109375 L 2.078125 -3.109375 L 2.078125 -2.484375 L 0.953125 -2.484375 L 0.953125 -1.859375 L 2.03125 -1.859375 L 2.03125 -1.25 L 0.953125 -1.25 L 0.953125 -0.625 Z M 2.078125 -0.625 "/></g></g></g><g fill="#ffffff" fill-opacity="1"><g transform="translate(100.304435, 4.457477)"><g><path d="M 0.953125 -1.109375 L 0.953125 0 L 0.28125 0 L 0.28125 -3.109375 L 1.4375 -3.109375 C 1.601562 -3.109375 1.757812 -3.066406 1.90625 -2.984375 C 2.050781 -2.898438 2.164062 -2.78125 2.25 -2.625 C 2.34375 -2.476562 2.390625 -2.304688 2.390625 -2.109375 C 2.390625 -1.929688 2.351562 -1.773438 2.28125 -1.640625 C 2.21875 -1.515625 2.132812 -1.40625 2.03125 -1.3125 C 1.925781 -1.226562 1.804688 -1.171875 1.671875 -1.140625 L 2.5625 0 L 1.703125 0 L 0.96875 -1.109375 Z M 1.328125 -2.5625 L 0.953125 -2.5625 L 0.953125 -1.640625 L 1.328125 -1.640625 C 1.421875 -1.640625 1.507812 -1.679688 1.59375 -1.765625 C 1.6875 -1.847656 1.734375 -1.960938 1.734375 -2.109375 C 1.734375 -2.253906 1.6875 -2.363281 1.59375 -2.4375 C 1.507812 -2.519531 1.421875 -2.5625 1.328125 -2.5625 Z M 1.328125 -2.5625 "/></g></g></g></g></g></svg>